<svg id="Capa_1" enable-background="new 0 0 512 512" height="512" viewBox="0 0 512 512" width="512" xmlns="http://www.w3.org/2000/svg"><g><path d="m329.39 375.92h-146.785v25.712l146.785.31z" fill="#6f6571"/><path d="m165.044 396.62h-10.516c-4.92 0-9.739.431-14.422 1.258-3.98 4.123-10.855 4.935-15.454 4.325-20.618 8.023-37.208 24.106-45.902 44.378 4.689 6.045.626 11.92-4.881 15.455-1.15 5.486-1.755 11.172-1.755 16.999v12.362c0 11.379 9.225 20.604 20.604 20.604h326.567c11.379 0 20.604-9.225 20.604-20.604v-12.362c0-5.828-.605-11.516-1.756-17.002-.647-3.085-6.921-4.517-7.902-7.465-.725-2.177 3.916-5.902 3.019-7.994-8.694-20.269-25.283-36.349-45.898-44.371-2.348-.914-4.749 3.873-7.196 3.174-2.698-.771-5.453-7.003-8.257-7.498-4.684-.827-9.504-1.258-14.425-1.258h-10.13-182.3z" fill="#fc8d94"/><path d="m439.887 479.034v12.362c0 11.384-9.22 20.604-20.604 20.604h-30.905c11.384 0 20.604-9.22 20.604-20.604v-12.362c0-45.513-36.901-82.414-82.414-82.414h30.905c4.921 0 9.741.431 14.425 1.258 3.539 4.684 10.852 3.809 15.449 4.324 20.617 8.023 37.208 24.105 45.903 44.377-13.208 12.505 3.757 10.093 4.882 15.455 1.15 5.485 1.755 11.172 1.755 17z" fill="#fa6f7c"/><path d="m427.824 462.036h-40.476v49.964h-15.453v-49.964h-46.358v49.964h-15.453v-49.964h-46.358v49.964h-15.453v-49.964h-46.358v49.964h-15.453v-49.964h-46.358v49.964h-15.453v-49.964h-50.777c1.123-5.367 2.761-10.529 4.883-15.453h45.895v-44.38c4.935-1.916 10.106-3.379 15.453-4.327v48.707h46.358v-16.998c0-4.265 3.461-7.726 7.726-7.726s7.726 3.461 7.726 7.726v16.998h46.358v-8.118c0-4.265 3.461-7.726 7.726-7.726s7.726 3.461 7.726 7.726v8.118h46.358v-14.299c0-4.265 3.461-7.726 7.726-7.726s7.726 3.461 7.726 7.726v14.299h46.358v-38.405c5.347.948 10.518 2.411 15.453 4.327v34.078h35.593c2.124 4.925 3.762 10.086 4.885 15.453z" fill="#6f6571"/><path d="m438.126 462.036h-30.906c-1.123-5.367-2.761-10.529-4.883-15.453h30.905c2.123 4.925 3.761 10.086 4.884 15.453z" fill="#5d5360"/><path d="m387.348 402.203v21.17c-4.584-4.996-9.776-9.426-15.453-13.176v-12.321c5.347.948 10.518 2.411 15.453 4.327z" fill="#5d5360"/><path d="m300.813 345.111v51.509h14.165l-58.978 40.884-68.7-40.884h23.887v-51.509z" fill="#ecbd83"/><path d="m344.702 418.209-49.717 41.718c-6.538 5.486-16.285 4.633-21.77-1.905l-17.217-20.518 73.392-61.583 17.217 20.518c5.485 6.537 4.632 16.284-1.905 21.77z" fill="#9f9aa0"/><path d="m167.292 418.208 49.717 41.718c6.538 5.486 16.285 4.633 21.77-1.905l17.217-20.518-73.392-61.583-17.217 20.518c-5.485 6.538-4.632 16.285 1.905 21.77z" fill="#9f9aa0"/><path d="m155.557 186.463s-44.942 5.408-51.512 13.541c-10.375 5.131-17.51 15.823-17.51 28.181 0 17.353 14.067 31.42 31.42 31.42h37.602z" fill="#ecbd83"/><path d="m145.256 235.911h-27.815c-4.268 0-7.726-3.459-7.726-7.726 0-4.268 3.459-7.726 7.726-7.726h27.815c4.268 0 7.726 3.459 7.726 7.726 0 4.268-3.459 7.726-7.726 7.726z" fill="#d19a6e"/><g fill="#f6d190"><path d="m134.954 197.795v41.722c0 66.852 54.194 121.046 121.046 121.046 66.852 0 121.046-54.194 121.046-121.046v-42.753"/><path d="m366.744 196.765h27.3c17.353 0 31.42 14.067 31.42 31.42 0 17.353-14.067 31.42-31.42 31.42h-27.3z"/><path d="m377.046 145.256v94.262c0 51.05-31.603 94.72-76.312 112.511-13.839 5.507-55.128 8.202-60.188 7.558-59.555-7.589-105.593-58.452-105.593-120.069v-93.232z"/></g><path d="m377.046 186.463v-41.207l-30.905.134v94.128c0 61.615-46.039 112.475-105.594 120.068 5.058.649 10.219 5.228 15.453 5.228 15.802 0 33.223-2.318 44.734-12.786 38.71-15.408 67.592-50.22 74.643-92.421h18.667c17.353 0 31.421-14.067 31.421-31.421 0-12.468-7.262-23.24-17.788-28.317z" fill="#ecbd83"/><path d="m317.296 251.364c-4.268 0-7.726-3.459-7.726-7.726v-15.453c0-4.268 3.459-7.726 7.726-7.726s7.726 3.459 7.726 7.726v15.453c0 4.267-3.459 7.726-7.726 7.726z" fill="#d19a6e"/><path d="m194.704 251.364c-4.268 0-7.726-3.459-7.726-7.726v-15.453c0-4.268 3.459-7.726 7.726-7.726s7.726 3.459 7.726 7.726v15.453c.001 4.267-3.458 7.726-7.726 7.726z" fill="#d19a6e"/><path d="m314.67 302.479c-5.409.639-16.438.226-20.882-12.525-2.091-9.83-4.384-16.327-6.419-20.603-2.236-4.698-6.434-8.162-11.455-9.528-7.818-2.127-15.829 1.262-19.914 7.795-4.084-6.533-12.096-9.922-19.914-7.795-5.021 1.366-9.219 4.83-11.455 9.528-2.035 4.276-4.328 10.773-6.419 20.603-4.445 12.751-15.473 13.165-20.882 12.525-1.499-.177-2.673 1.291-2.169 2.713 3.04 8.577 10.514 14.965 19.66 16.509 14.166 2.39 28.338-4.202 35.636-16.576l4.211-7.14c.484-.821 2.18-.821 2.664 0l4.211 7.14c7.298 12.374 21.471 18.966 35.636 16.576 9.146-1.543 16.62-7.932 19.66-16.509.505-1.422-.67-2.89-2.169-2.713z" fill="#bc845e"/><path d="m402.286 228.185c0 4.265-3.461 7.726-7.726 7.726h-17.513v-15.453h17.513c4.264.001 7.726 3.462 7.726 7.727z" fill="#d19a6e"/><path d="m407.952 156.392v43.618c-4.193-2.081-8.911-3.245-13.907-3.245h-16.998v31.421c-3.616 0-7.077-.618-10.302-1.772-12.012-4.234-20.604-15.679-20.604-29.133v-.515h-38.117c-8.53 0-15.453-6.923-15.453-15.453v-26.785l84.475 1.37z" fill="#bc845e"/><path d="m407.952 156.392v43.618c-4.193-2.081-8.911-3.245-13.907-3.245h-16.998v-40.867z" fill="#ad775c"/><path d="m104.048 156.392v43.618c4.193-2.081 8.911-3.245 13.907-3.245h16.998v31.421c3.616 0 7.077-.618 10.302-1.772 12.012-4.234 20.604-15.679 20.604-29.133v-.515h38.117c8.53 0 15.453-6.923 15.453-15.453v-26.785l-84.475 1.37z" fill="#bc845e"/><path d="m281.617 32.115c.427-1.88.653-3.836.653-5.845 0-14.509-11.762-26.27-26.27-26.27-14.508 0-26.27 11.761-26.27 26.27 0 2.023.229 3.992.661 5.883z" fill="#6f6571"/><path d="m282.27 26.27c0 2.009-.227 3.966-.649 5.841h-30.905c.422-1.875.649-3.832.649-5.841 0-7.253-2.946-13.825-7.695-18.574-.968-.968-2.009-1.865-3.121-2.658 4.335-3.173 9.672-5.038 15.451-5.038 7.253 0 13.825 2.946 18.574 7.695 4.749 4.75 7.696 11.322 7.696 18.575z" fill="#5d5360"/><path d="m315.236 30.905h-118.472c-51.206 0-92.716 41.51-92.716 92.716l148.861 22.149 155.043-22.149c0-51.205-41.511-92.716-92.716-92.716z" fill="#ffe07d"/><path d="m407.952 123.622-30.905 2.447v-2.447c0-51.21-41.506-92.716-92.716-92.716h30.905c51.21-.001 92.716 41.505 92.716 92.716z" fill="#ffd064"/><path d="m268.362 30.905h-24.724c-19.881 0-36.056 16.175-36.056 36.056v1.03c0 4.268 3.459 7.726 7.726 7.726s7.726-3.459 7.726-7.726v-1.03c0-11.361 9.242-20.604 20.604-20.604h4.636v21.634c0 4.268 3.459 7.726 7.726 7.726s7.726-3.459 7.726-7.726v-21.633h4.636c11.361 0 20.604 9.242 20.604 20.604v1.03c0 4.268 3.459 7.726 7.726 7.726 4.268 0 7.726-3.459 7.726-7.726v-1.03c.001-19.882-16.175-36.057-36.056-36.057z" fill="#ffd064"/><path d="m407.952 165.859c8.534 0 15.453-6.918 15.453-15.453v-11.332c0-8.534-6.918-15.453-15.453-15.453h-303.904c-8.534 0-15.453 6.918-15.453 15.453v11.332c0 8.534 6.918 15.453 15.453 15.453z" fill="#ffc269"/><path d="m423.404 139.074v11.332c0 8.53-6.923 15.453-15.453 15.453h-30.905c8.53 0 15.453-6.923 15.453-15.453v-11.332c0-5.048-2.431-9.539-6.181-12.362-2.575-1.937-5.79-3.091-9.272-3.091h30.905c8.531.001 15.453 6.924 15.453 15.453z" fill="#ffa95f"/></g></svg>